<?xml version="1.0" encoding="UTF-8" standalone="no"?>
<!-- Created with Inkscape (http://www.inkscape.org/) -->

<svg
   width="79.309372mm"
   height="30.858788mm"
   viewBox="0 0 79.309372 30.858788"
   version="1.1"
   id="svg5"
   inkscape:version="1.3.2 (091e20e, 2023-11-25, custom)"
   sodipodi:docname="eddy_dissipation.svg"
   xmlns:inkscape="http://www.inkscape.org/namespaces/inkscape"
   xmlns:sodipodi="http://sodipodi.sourceforge.net/DTD/sodipodi-0.dtd"
   xmlns="http://www.w3.org/2000/svg"
   xmlns:svg="http://www.w3.org/2000/svg">
  <sodipodi:namedview
     id="namedview7"
     pagecolor="#3a3a3a"
     bordercolor="#777777"
     borderopacity="1"
     inkscape:showpageshadow="0"
     inkscape:pageopacity="0"
     inkscape:pagecheckerboard="0"
     inkscape:deskcolor="#bcbcbc"
     inkscape:document-units="mm"
     showgrid="true"
     inkscape:zoom="2.9041807"
     inkscape:cx="182.49553"
     inkscape:cy="59.397131"
     inkscape:window-width="1920"
     inkscape:window-height="1013"
     inkscape:window-x="-9"
     inkscape:window-y="-9"
     inkscape:window-maximized="1"
     inkscape:current-layer="layer1">
    <inkscape:grid
       id="grid1"
       units="px"
       originx="-27.319975"
       originy="-20.734961"
       spacingx="0.26458333"
       spacingy="0.26458334"
       empcolor="#0099e5"
       empopacity="0.30196078"
       color="#0099e5"
       opacity="0.14901961"
       empspacing="5"
       dotted="false"
       gridanglex="30"
       gridanglez="30"
       visible="true" />
  </sodipodi:namedview>
  <defs
     id="defs2">
    <marker
       style="overflow:visible"
       id="ConcaveTriangle"
       refX="0"
       refY="0"
       orient="auto-start-reverse"
       inkscape:stockid="Concave triangle arrow"
       markerWidth="1.5"
       markerHeight="1.5"
       viewBox="0 0 1 1"
       inkscape:isstock="true"
       inkscape:collect="always"
       preserveAspectRatio="xMidYMid">
      <path
         transform="scale(0.7)"
         d="M -2,-4 9,0 -2,4 c 2,-2.33 2,-5.66 0,-8 z"
         style="fill:context-stroke;fill-rule:evenodd;stroke:none"
         id="path7" />
    </marker>
    <marker
       style="overflow:visible"
       id="RoundedArrow-5"
       refX="0"
       refY="0"
       orient="auto-start-reverse"
       inkscape:stockid="Rounded arrow"
       markerWidth="0.5"
       markerHeight="0.5"
       viewBox="0 0 1 1"
       inkscape:isstock="true"
       inkscape:collect="always"
       preserveAspectRatio="xMidYMid">
      <path
         transform="scale(0.7)"
         d="m -0.21114562,-4.1055728 6.42229122,3.21114561 a 1,1 90 0 1 0,1.78885438 L -0.21114562,4.1055728 A 1.236068,1.236068 31.717474 0 1 -2,3 v -6 a 1.236068,1.236068 148.28253 0 1 1.78885438,-1.1055728 z"
         style="fill:context-stroke;fill-rule:evenodd;stroke:none"
         id="path8-3" />
    </marker>
    <marker
       style="overflow:visible"
       id="RoundedArrow-5-1"
       refX="0"
       refY="0"
       orient="auto-start-reverse"
       inkscape:stockid="Rounded arrow"
       markerWidth="0.5"
       markerHeight="0.5"
       viewBox="0 0 1 1"
       inkscape:isstock="true"
       inkscape:collect="always"
       preserveAspectRatio="xMidYMid">
      <path
         transform="scale(0.7)"
         d="m -0.21114562,-4.1055728 6.42229122,3.21114561 a 1,1 90 0 1 0,1.78885438 L -0.21114562,4.1055728 A 1.236068,1.236068 31.717474 0 1 -2,3 v -6 a 1.236068,1.236068 148.28253 0 1 1.78885438,-1.1055728 z"
         style="fill:context-stroke;fill-rule:evenodd;stroke:none"
         id="path8-3-5" />
    </marker>
    <marker
       style="overflow:visible"
       id="RoundedArrow-5-1-0"
       refX="0"
       refY="0"
       orient="auto-start-reverse"
       inkscape:stockid="Rounded arrow"
       markerWidth="0.5"
       markerHeight="0.5"
       viewBox="0 0 1 1"
       inkscape:isstock="true"
       inkscape:collect="always"
       preserveAspectRatio="xMidYMid">
      <path
         transform="scale(0.7)"
         d="m -0.21114562,-4.1055728 6.42229122,3.21114561 a 1,1 90 0 1 0,1.78885438 L -0.21114562,4.1055728 A 1.236068,1.236068 31.717474 0 1 -2,3 v -6 a 1.236068,1.236068 148.28253 0 1 1.78885438,-1.1055728 z"
         style="fill:context-stroke;fill-rule:evenodd;stroke:none"
         id="path8-3-5-5" />
    </marker>
    <marker
       style="overflow:visible"
       id="RoundedArrow-5-1-0-9"
       refX="0"
       refY="0"
       orient="auto-start-reverse"
       inkscape:stockid="Rounded arrow"
       markerWidth="0.5"
       markerHeight="0.5"
       viewBox="0 0 1 1"
       inkscape:isstock="true"
       inkscape:collect="always"
       preserveAspectRatio="xMidYMid">
      <path
         transform="scale(0.7)"
         d="m -0.21114562,-4.1055728 6.42229122,3.21114561 a 1,1 90 0 1 0,1.78885438 L -0.21114562,4.1055728 A 1.236068,1.236068 31.717474 0 1 -2,3 v -6 a 1.236068,1.236068 148.28253 0 1 1.78885438,-1.1055728 z"
         style="fill:context-stroke;fill-rule:evenodd;stroke:none"
         id="path8-3-5-5-1" />
    </marker>
    <marker
       style="overflow:visible"
       id="RoundedArrow-5-1-0-9-3"
       refX="0"
       refY="0"
       orient="auto-start-reverse"
       inkscape:stockid="Rounded arrow"
       markerWidth="0.5"
       markerHeight="0.5"
       viewBox="0 0 1 1"
       inkscape:isstock="true"
       inkscape:collect="always"
       preserveAspectRatio="xMidYMid">
      <path
         transform="scale(0.7)"
         d="m -0.21114562,-4.1055728 6.42229122,3.21114561 a 1,1 90 0 1 0,1.78885438 L -0.21114562,4.1055728 A 1.236068,1.236068 31.717474 0 1 -2,3 v -6 a 1.236068,1.236068 148.28253 0 1 1.78885438,-1.1055728 z"
         style="fill:context-stroke;fill-rule:evenodd;stroke:none"
         id="path8-3-5-5-1-9" />
    </marker>
    <marker
       style="overflow:visible"
       id="RoundedArrow-5-1-0-9-3-9"
       refX="0"
       refY="0"
       orient="auto-start-reverse"
       inkscape:stockid="Rounded arrow"
       markerWidth="0.5"
       markerHeight="0.5"
       viewBox="0 0 1 1"
       inkscape:isstock="true"
       inkscape:collect="always"
       preserveAspectRatio="xMidYMid">
      <path
         transform="scale(0.7)"
         d="m -0.21114562,-4.1055728 6.42229122,3.21114561 a 1,1 90 0 1 0,1.78885438 L -0.21114562,4.1055728 A 1.236068,1.236068 31.717474 0 1 -2,3 v -6 a 1.236068,1.236068 148.28253 0 1 1.78885438,-1.1055728 z"
         style="fill:context-stroke;fill-rule:evenodd;stroke:none"
         id="path8-3-5-5-1-9-7" />
    </marker>
    <marker
       style="overflow:visible"
       id="RoundedArrow-5-1-0-9-3-98"
       refX="0"
       refY="0"
       orient="auto-start-reverse"
       inkscape:stockid="Rounded arrow"
       markerWidth="0.5"
       markerHeight="0.5"
       viewBox="0 0 1 1"
       inkscape:isstock="true"
       inkscape:collect="always"
       preserveAspectRatio="xMidYMid">
      <path
         transform="scale(0.7)"
         d="m -0.21114562,-4.1055728 6.42229122,3.21114561 a 1,1 90 0 1 0,1.78885438 L -0.21114562,4.1055728 A 1.236068,1.236068 31.717474 0 1 -2,3 v -6 a 1.236068,1.236068 148.28253 0 1 1.78885438,-1.1055728 z"
         style="fill:context-stroke;fill-rule:evenodd;stroke:none"
         id="path8-3-5-5-1-9-3" />
    </marker>
  </defs>
  <g
     inkscape:label="Calque 1"
     inkscape:groupmode="layer"
     id="layer1"
     transform="translate(-27.319975,-20.734962)">
    <path
       style="fill:none;stroke:#ffffff;stroke-width:0.265;stroke-linecap:round;stroke-linejoin:round;stroke-dasharray:1.59, 1.59;stroke-dashoffset:0;stroke-opacity:0.455904"
       d="M 85.98958,43.656252 V 22.489584"
       id="path6"
       sodipodi:nodetypes="cc" />
    <path
       style="fill:none;stroke:#ffffff;stroke-width:0.264583px;stroke-linecap:round;stroke-linejoin:round;stroke-opacity:1;marker-end:url(#ConcaveTriangle)"
       d="M 101.71906,43.656251 H 31.330665"
       id="path1"
       sodipodi:nodetypes="cc" />
    <path
       style="fill:none;stroke:#ffffff;stroke-width:0.264583px;stroke-linecap:round;stroke-linejoin:round;stroke-opacity:1"
       d="m 46.302082,43.656251 v 1.322917"
       id="path2" />
    <path
       style="fill:none;stroke:#ffffff;stroke-width:0.264583px;stroke-linecap:round;stroke-linejoin:round;stroke-opacity:1"
       d="m 85.989583,43.656251 v 1.322917"
       id="path2-9" />
    <path
       id="path3"
       style="fill:none;fill-rule:evenodd;stroke:#ffffff;stroke-width:0.294723;stroke-linecap:round;stroke-linejoin:round;marker-end:url(#RoundedArrow-5)"
       transform="matrix(1.5848787,0,0,1.5706561,-38.124744,-7.835582)"
       d="m 54.239582,25.135416 c 0.331645,0.265316 -0.194019,0.577948 -0.440973,0.551216 -0.66923,-0.07244 -0.867173,-0.897341 -0.661458,-1.433162 0.367977,-0.958459 1.573252,-1.199871 2.42535,-0.771701 1.250489,0.628357 1.541171,2.257879 0.881943,3.41754 -0.878647,1.545644 -2.94554,1.886061 -4.409728,0.992185 -1.842531,-1.124852 -2.232794,-3.634632 -1.102427,-5.401917 1.369025,-2.140418 4.324528,-2.58059 6.394105,-1.21267 2.438925,1.612047 2.929053,5.014924 1.322912,7.386294 -1.854353,2.73784 -5.705654,3.277962 -8.378482,1.433155 -0.137709,-0.09505 -0.271651,-0.195552 -0.401431,-0.30117" />
    <path
       id="path3-8"
       style="fill:none;fill-rule:evenodd;stroke:#ffffff;stroke-width:0.426852;stroke-linecap:round;stroke-linejoin:round;marker-end:url(#RoundedArrow-5)"
       transform="matrix(1.0650515,0.24152476,-0.24032193,1.0597474,11.580635,-1.7388483)"
       d="m 54.239582,25.135416 c 0.331645,0.265316 -0.194019,0.577948 -0.440973,0.551215 -0.669229,-0.07244 -0.867172,-0.89734 -0.661457,-1.43316 0.367976,-0.958458 1.573251,-1.19987 2.425348,-0.7717 1.250487,0.628356 1.541169,2.257877 0.881942,3.417536 -0.878647,1.545643 -2.945537,1.886059 -4.409723,0.992184 -1.842529,-1.124851 -2.232792,-3.634628 -1.102427,-5.401911 1.369024,-2.140416 4.324524,-2.580587 6.394099,-1.212669 1.309103,0.865273 2.137844,2.330952 2.259701,3.889717" />
    <path
       id="path3-8-2"
       style="fill:none;fill-rule:evenodd;stroke:#ffffff;stroke-width:0.435565;stroke-linecap:round;stroke-linejoin:round;marker-end:url(#RoundedArrow-5-1)"
       transform="matrix(-0.32619826,1.0432142,0.99520912,0.31118774,56.328772,-36.511715)"
       d="m 54.239582,25.135416 c 0.331645,0.265316 -0.194019,0.577948 -0.440973,0.551215 -0.669229,-0.07244 -0.867172,-0.89734 -0.661457,-1.43316 0.367976,-0.958458 1.573251,-1.19987 2.425348,-0.7717 1.250487,0.628356 1.541169,2.257877 0.881942,3.417536 -0.878647,1.545642 -2.945537,1.886059 -4.409723,0.992184 -1.842529,-1.124851 -2.232792,-3.634628 -1.102427,-5.401911 0.58489,-0.914452 1.515527,-1.576355 2.561547,-1.857154" />
    <path
       id="path3-8-2-6"
       style="fill:none;fill-rule:evenodd;stroke:#ffffff;stroke-width:0.719908;stroke-linecap:round;stroke-linejoin:round;marker-end:url(#RoundedArrow-5-1-0)"
       transform="matrix(0.66154281,0,0,0.63065756,37.014304,15.482938)"
       d="m 54.239582,25.135416 c 0.331645,0.265316 -0.194019,0.577948 -0.440973,0.551215 -0.669229,-0.07244 -0.867172,-0.89734 -0.661457,-1.43316 0.367976,-0.958458 1.573251,-1.19987 2.425348,-0.7717 1.250487,0.628356 1.541169,2.257877 0.881942,3.417536 -0.878647,1.545642 -2.945537,1.886059 -4.409723,0.992184 -1.842529,-1.124851 -2.232792,-3.634628 -1.102427,-5.401911 0.58489,-0.914452 1.515527,-1.576355 2.561547,-1.857154" />
    <path
       id="path3-8-2-6-1"
       style="fill:none;fill-rule:evenodd;stroke:#ffffff;stroke-width:0.739608;stroke-linejoin:round;marker-end:url(#RoundedArrow-5-1-0-9)"
       transform="matrix(0.09654961,0.63641411,-0.60712851,0.09210673,85.413806,1.0970487)"
       d="m 54.239582,25.135416 c 0.331645,0.265316 -0.194019,0.577948 -0.440973,0.551215 -0.669229,-0.07244 -0.867172,-0.89734 -0.661457,-1.43316 0.367976,-0.958458 1.573251,-1.19987 2.425348,-0.7717 1.250487,0.628356 1.541169,2.257877 0.881942,3.417536 -0.878647,1.545642 -2.945537,1.886059 -4.409723,0.992184 -1.842529,-1.124851 -2.232792,-3.634628 -1.102427,-5.401911 0.58489,-0.914452 1.515527,-1.576355 2.561547,-1.857154" />
    <path
       id="path3-8-2-6-1-9"
       style="fill:none;fill-rule:evenodd;stroke:#ffffff;stroke-width:0.877563;stroke-linecap:round;stroke-linejoin:round;marker-end:url(#RoundedArrow-5-1-0-9-3)"
       transform="matrix(0.23264484,-0.49009077,0.46753847,0.22193932,54.849541,51.092413)"
       d="m 54.239582,25.135416 c 0.331645,0.265316 -0.194019,0.577948 -0.440973,0.551215 -0.669229,-0.07244 -0.867172,-0.89734 -0.661457,-1.43316 0.367976,-0.958458 1.573251,-1.19987 2.425348,-0.7717 1.250487,0.628356 1.541169,2.257877 0.881942,3.417536 -0.878647,1.545642 -2.945537,1.886059 -4.409723,0.992184 -1.842529,-1.124851 -2.232792,-3.634628 -1.102427,-5.401911 0.58489,-0.914452 1.515527,-1.576355 2.561547,-1.857154" />
    <path
       id="path3-8-2-6-1-9-4"
       style="fill:none;fill-rule:evenodd;stroke:#ffffff;stroke-width:1.16419;stroke-linecap:round;stroke-linejoin:round;marker-end:url(#RoundedArrow-5-1-0-9-3-9)"
       transform="matrix(0.40893833,0,0,0.39012039,63.626403,22.139632)"
       d="m 54.239582,25.135416 c 0.331645,0.265316 -0.194019,0.577948 -0.440973,0.551215 -0.669229,-0.07244 -0.867172,-0.89734 -0.661457,-1.43316 0.367976,-0.958458 1.573251,-1.19987 2.425348,-0.7717 1.250487,0.628356 1.541169,2.257877 0.881942,3.417536 -0.878647,1.545642 -2.945537,1.886059 -4.409723,0.992184 -1.842529,-1.124851 -2.232792,-3.634628 -1.102427,-5.401911 0.58489,-0.914452 1.515527,-1.576355 2.561547,-1.857154" />
    <path
       id="path3-8-2-6-1-9-0"
       style="fill:none;fill-rule:evenodd;stroke:#ffffff;stroke-width:0.966968;stroke-linecap:round;stroke-linejoin:round;marker-end:url(#RoundedArrow-5-1-0-9-3-98)"
       transform="matrix(-0.49331861,0,0,0.46876383,108.95485,24.050408)"
       d="m 54.239582,25.135416 c 0.331645,0.265316 -0.194019,0.577948 -0.440973,0.551215 -0.669229,-0.07244 -0.867172,-0.89734 -0.661457,-1.43316 0.367976,-0.958458 1.573251,-1.19987 2.425348,-0.7717 1.250487,0.628356 1.541169,2.257877 0.881942,3.417536 -0.878647,1.545642 -2.945537,1.886059 -4.409723,0.992184 -1.842529,-1.124851 -2.232792,-3.634628 -1.102427,-5.401911 0.58489,-0.914452 1.515527,-1.576355 2.561547,-1.857154" />
    <path
       style="font-style:italic;font-size:4.23333px;line-height:2.3;font-family:Inter;-inkscape-font-specification:'Inter, Normal';fill:#ffffff;stroke-width:0.365;stroke-linecap:round;stroke-linejoin:round"
       d="m 44.559553,49.556694 0.510562,-3.079913 h 0.392741 l -0.454752,2.734715 h 1.426268 l -0.05581,0.345198 z"
       id="text4"
       aria-label="L" />
    <path
       style="font-size:2.82222px;line-height:2.3;font-family:Inter;-inkscape-font-specification:'Inter, Normal';fill:#ffffff;stroke-width:0.365;stroke-linecap:round;stroke-linejoin:round"
       d="m 27.568022,45.145596 v 2.053276 h -0.248047 v -2.053276 z m 1.083137,2.086349 q -0.223242,0 -0.38585,-0.09922 -0.161231,-0.09922 -0.249425,-0.276986 -0.08682,-0.177766 -0.08682,-0.414789 0,-0.237022 0.08544,-0.417545 0.08544,-0.180523 0.241156,-0.282498 0.157097,-0.101974 0.366558,-0.101974 0.122646,0 0.241157,0.04134 0.119889,0.03996 0.216352,0.130913 0.09784,0.08957 0.155718,0.237023 0.05788,0.14745 0.05788,0.361045 v 0.103353 H 28.17987 q 0.0096,0.241157 0.137804,0.370692 0.129536,0.128158 0.334863,0.128158 0.136426,0 0.234266,-0.05926 0.09922,-0.06063 0.141938,-0.177767 l 0.239779,0.06615 q -0.05374,0.175011 -0.21773,0.283876 -0.162609,0.107487 -0.399631,0.107487 z m -0.469911,-0.928798 h 0.859896 q -0.01791,-0.197059 -0.124024,-0.319704 -0.104731,-0.124023 -0.2949,-0.124023 -0.132291,0 -0.228754,0.06201 -0.09508,0.06201 -0.150206,0.162609 -0.05512,0.100596 -0.06201,0.219107 z m 1.715657,-0.02756 v 0.923285 h -0.248047 v -1.540646 h 0.2384 l 0.0014,0.285254 q 0.07441,-0.163987 0.194304,-0.234267 0.121267,-0.07028 0.276985,-0.07028 0.234266,0 0.377582,0.144693 0.143316,0.144694 0.143316,0.436838 v 0.978407 h -0.248047 v -0.957736 q 0,-0.177767 -0.09371,-0.278364 -0.09233,-0.100596 -0.253559,-0.100596 -0.166742,0 -0.278363,0.108865 -0.110243,0.107486 -0.110243,0.304546 z m 2.043629,1.532377 q -0.256315,0 -0.409277,-0.09371 -0.152963,-0.09371 -0.22462,-0.220486 l 0.201193,-0.129536 q 0.03307,0.0441 0.0813,0.09784 0.04961,0.05374 0.132292,0.09095 0.08406,0.03858 0.219108,0.03858 0.184657,0 0.303168,-0.08819 0.119889,-0.0882 0.119889,-0.278364 v -0.30868 h -0.02343 q -0.02618,0.0441 -0.07441,0.104731 -0.04685,0.06063 -0.136425,0.107487 -0.08819,0.04548 -0.237023,0.04548 -0.184657,0 -0.332107,-0.08682 -0.14745,-0.08819 -0.232888,-0.256315 -0.08544,-0.168121 -0.08544,-0.409277 0,-0.238401 0.08406,-0.413411 0.08406,-0.176389 0.23151,-0.272852 0.148828,-0.09646 0.340375,-0.09646 0.148829,0 0.237023,0.04961 0.08957,0.04823 0.137804,0.111621 0.04823,0.06339 0.07441,0.104731 h 0.02343 v -0.246669 h 0.241157 v 1.580609 q 0,0.198437 -0.08957,0.323838 -0.08957,0.12678 -0.242534,0.186035 -0.151584,0.05926 -0.338997,0.05926 z m -0.0069,-0.854383 q 0.209462,0 0.321083,-0.141938 0.111621,-0.143316 0.111621,-0.395496 0,-0.245291 -0.110243,-0.399631 -0.108865,-0.155718 -0.322461,-0.155718 -0.146071,0 -0.243912,0.07579 -0.09784,0.07441 -0.14745,0.199815 -0.04823,0.125401 -0.04823,0.279742 0,0.237022 0.111621,0.387228 0.111621,0.150206 0.327972,0.150206 z m 1.719791,-1.295355 v 0.212218 h -0.316949 v 0.928797 q 0,0.103353 0.04134,0.151584 0.04272,0.04685 0.14056,0.04685 0.02343,0 0.05926,-0.0055 0.03721,-0.0055 0.06752,-0.01102 l 0.05099,0.209461 q -0.03859,0.01378 -0.08819,0.02067 -0.04823,0.0069 -0.09646,0.0069 -0.199815,0 -0.311436,-0.104731 -0.111621,-0.106109 -0.111621,-0.2949 v -0.948089 h -0.231511 v -0.212218 h 0.231511 V 45.29169 h 0.248046 v 0.366558 z m 0.564995,0.617361 v 0.923285 h -0.248046 v -2.053276 h 0.248046 v 0.779969 q 0.07579,-0.15434 0.192925,-0.220486 0.118512,-0.06614 0.270096,-0.06614 0.234266,0 0.377582,0.144693 0.144694,0.144694 0.144694,0.436838 v 0.978407 h -0.249425 v -0.957736 q 0,-0.177767 -0.09371,-0.278364 -0.09233,-0.100596 -0.253559,-0.100596 -0.166743,0 -0.278364,0.108865 -0.110243,0.107486 -0.110243,0.304546 z"
       id="text4-7"
       aria-label="length" />
    <g
       id="text4-5"
       style="font-size:4.23333px;line-height:2.3;font-family:Inter;-inkscape-font-specification:'Inter, Normal';fill:#ffffff;stroke-width:0.365001;stroke-linecap:round;stroke-linejoin:round"
       aria-label="η ∼ L / Re3/4">
      <path
         style="font-style:italic;stroke-width:0.365"
         d="m 82.8826,49.344794 -0.229443,1.384927 h -0.37207 l 0.382405,-2.310968 h 0.357601 l -0.06821,0.425813 q 0.150895,-0.248046 0.338997,-0.351399 0.190169,-0.103353 0.419612,-0.103353 0.3514,0 0.543636,0.217041 0.192236,0.217041 0.119889,0.655257 L 83.988478,51.59375 H 83.61434 l 0.382406,-2.300633 q 0.04548,-0.270784 -0.05994,-0.419612 -0.103353,-0.148828 -0.343131,-0.148828 -0.163297,0 -0.314193,0.07235 -0.150895,0.07235 -0.258381,0.21084 -0.10542,0.136425 -0.138493,0.33693 z"
         id="path23" />
      <path
         style="stroke-width:0.365"
         d="m 89.094102,49.03887 v 0.370003 q -0.217041,0.16123 -0.403076,0.233577 -0.183968,0.07028 -0.384472,0.07028 -0.227377,0 -0.529167,-0.121957 -0.02067,-0.0083 -0.03514,-0.01447 -0.0124,-0.0041 -0.04341,-0.01654 -0.320393,-0.126091 -0.514697,-0.126091 -0.181901,0 -0.359667,0.07855 -0.177767,0.07855 -0.380339,0.252181 V 49.3944 q 0.217041,-0.16123 0.401009,-0.23151 0.186035,-0.07235 0.38654,-0.07235 0.227376,0 0.531233,0.121956 0.02274,0.01034 0.03307,0.01447 0.0124,0.0041 0.04341,0.01654 0.320394,0.126091 0.514697,0.126091 0.177767,0 0.351399,-0.07648 0.1757,-0.07855 0.388607,-0.254247 z"
         id="path24" />
      <path
         style="font-style:italic;stroke-width:0.365"
         d="m 91.068139,50.729721 0.510563,-3.079913 h 0.392741 l -0.454752,2.734715 h 1.426268 l -0.05581,0.345198 z"
         id="path25" />
      <path
         style="stroke-width:0.365"
         d="m 95.902982,47.505114 -0.992186,3.687628 h -0.343131 l 0.992186,-3.687628 z m 1.657779,3.224607 v -3.079913 h 1.054198 q 0.359668,0 0.591178,0.124024 0.233578,0.121956 0.345199,0.33693 0.113688,0.214973 0.113688,0.489892 0,0.305924 -0.14056,0.5333 -0.138493,0.227376 -0.429948,0.328662 l 0.690397,1.267105 h -0.454752 l -0.640788,-1.196825 q -0.03514,0.0021 -0.07235,0.0021 h -0.663525 v 1.194758 z m 0.392741,-1.54409 h 0.644921 q 0.363802,0 0.518831,-0.157097 0.157096,-0.157096 0.157096,-0.42788 0,-0.274919 -0.157096,-0.440283 -0.155029,-0.165364 -0.522965,-0.165364 h -0.640787 z m 3.195668,1.593699 q -0.33486,0 -0.57878,-0.148828 -0.24184,-0.148828 -0.37413,-0.415478 -0.13023,-0.26665 -0.13023,-0.622183 0,-0.355534 0.12816,-0.626318 0.12816,-0.270785 0.36173,-0.423747 0.23565,-0.152962 0.54984,-0.152962 0.18397,0 0.36174,0.06201 0.17983,0.05994 0.32452,0.19637 0.14677,0.134359 0.23358,0.355534 0.0868,0.221175 0.0868,0.541568 v 0.155029 h -1.67018 q 0.0145,0.361735 0.2067,0.556038 0.19431,0.192237 0.5023,0.192237 0.20464,0 0.3514,-0.08888 0.14882,-0.09095 0.2129,-0.26665 l 0.35967,0.09922 q -0.0806,0.262516 -0.32659,0.425813 -0.24392,0.16123 -0.59945,0.16123 z m -0.70487,-1.393195 h 1.28985 q -0.0269,-0.295589 -0.18604,-0.479557 -0.15709,-0.186035 -0.44235,-0.186035 -0.19844,0 -0.34313,0.09302 -0.14263,0.09302 -0.22531,0.243912 -0.0827,0.150895 -0.093,0.328662 z"
         id="path26" />
      <path
         style="font-size:2.75166px;baseline-shift:super;stroke-width:0.365"
         d="m 103.1723,49.063261 q -0.19616,0 -0.34799,-0.06718 -0.15182,-0.06718 -0.24184,-0.186759 -0.0887,-0.119579 -0.0954,-0.278122 h 0.25797 q 0.0108,0.14242 0.13167,0.225722 0.12092,0.08196 0.29156,0.08196 0.1881,0 0.31037,-0.09674 0.12361,-0.09674 0.12361,-0.252594 0,-0.162574 -0.12093,-0.264687 -0.12092,-0.103456 -0.34395,-0.103456 h -0.16258 v -0.221692 h 0.16258 q 0.17601,0 0.28484,-0.09271 0.11017,-0.09405 0.11017,-0.248564 0,-0.149138 -0.0967,-0.239158 -0.0967,-0.09002 -0.26065,-0.09002 -0.10212,0 -0.19214,0.03762 -0.0887,0.03628 -0.14645,0.1048 -0.0564,0.06852 -0.0605,0.166605 h -0.24587 q 0.005,-0.1572 0.0941,-0.276779 0.0887,-0.119579 0.23378,-0.186758 0.14645,-0.06718 0.32246,-0.06718 0.18676,0 0.32112,0.07524 0.1357,0.07524 0.20825,0.197507 0.0726,0.122267 0.0726,0.264687 0,0.169291 -0.09,0.287527 -0.0887,0.118236 -0.24185,0.163918 v 0.01612 q 0.19213,0.0309 0.29828,0.16123 0.10614,0.128984 0.10614,0.31843 0,0.163917 -0.0887,0.292902 -0.0887,0.128984 -0.24318,0.204225 -0.15452,0.0739 -0.35068,0.0739 z m 1.77622,-2.122866 -0.64492,2.396957 h -0.22304 l 0.64493,-2.396957 z m 0.22304,1.688888 v -0.208256 l 0.87601,-1.386581 h 0.31037 v 1.370458 h 0.27141 v 0.224379 h -0.27141 v 0.407106 h -0.24453 v -0.407106 z m 0.94319,-0.224379 v -1.050685 h -0.0161 l -0.65433,1.034562 v 0.01612 z"
         id="path27" />
    </g>
    <g
       id="text4-5-2"
       style="font-size:2.82222px;line-height:1;font-family:Inter;-inkscape-font-specification:'Inter, Normal';fill:#ffffff;stroke-width:0.365001;stroke-linecap:round;stroke-linejoin:round"
       aria-label="viscous&#10;dissipation">
      <path
         style="stroke-width:0.365"
         d="m 90.116808,31.11128 -0.588422,-1.540645 h 0.271473 l 0.327973,0.913639 q 0.03583,0.100596 0.06477,0.201193 0.02894,0.09922 0.05512,0.195681 0.02618,-0.09646 0.05374,-0.195681 0.02894,-0.100597 0.06477,-0.201193 l 0.327973,-0.913639 h 0.271474 l -0.588422,1.540645 z m 1.141014,0 v -1.540645 h 0.248047 v 1.540645 z m 0.125402,-1.792826 q -0.07028,0 -0.121267,-0.04823 -0.05099,-0.04823 -0.05099,-0.115755 0,-0.0689 0.05099,-0.115755 0.05099,-0.04823 0.121267,-0.04823 0.07166,0 0.122645,0.04823 0.05099,0.04685 0.05099,0.115755 0,0.06752 -0.05099,0.115755 -0.05099,0.04823 -0.122645,0.04823 z m 1.081759,1.825899 q -0.237022,0 -0.394119,-0.103352 -0.157096,-0.103353 -0.198437,-0.303169 l 0.235644,-0.0565 q 0.03307,0.126779 0.124024,0.186035 0.09233,0.05926 0.230132,0.05926 0.16123,0 0.256315,-0.0689 0.09646,-0.0689 0.09646,-0.163987 0,-0.158474 -0.225998,-0.212218 l -0.256315,-0.06063 q -0.413411,-0.09784 -0.413411,-0.420302 0,-0.132291 0.07441,-0.232888 0.07441,-0.101975 0.202572,-0.158474 0.129535,-0.05788 0.293522,-0.05788 0.2384,0 0.369314,0.104731 0.132291,0.103353 0.184657,0.265961 l -0.224621,0.05788 q -0.03169,-0.08268 -0.106108,-0.150206 -0.07304,-0.06752 -0.221864,-0.06752 -0.137804,0 -0.230133,0.06339 -0.09095,0.06339 -0.09095,0.159852 0,0.08544 0.06201,0.137804 0.06201,0.05099 0.197059,0.08268 l 0.232888,0.05512 q 0.209462,0.04961 0.310059,0.15434 0.100596,0.103352 0.100596,0.261827 0,0.135047 -0.07717,0.241156 -0.07579,0.104731 -0.213596,0.165365 -0.136425,0.06063 -0.316948,0.06063 z m 1.593011,0 q -0.209462,0 -0.367936,-0.09922 -0.157096,-0.09922 -0.245291,-0.278364 -0.08819,-0.179145 -0.08819,-0.416167 0,-0.241157 0.08819,-0.420301 0.08819,-0.180523 0.245291,-0.279742 0.158474,-0.09922 0.367936,-0.09922 0.223242,0 0.391362,0.112999 0.169499,0.111621 0.232889,0.312815 l -0.238401,0.06752 q -0.03445,-0.118512 -0.135047,-0.194304 -0.09922,-0.07717 -0.250803,-0.07717 -0.15434,0 -0.253559,0.08131 -0.09922,0.07993 -0.14745,0.210839 -0.04823,0.130914 -0.04823,0.285254 0,0.151584 0.04823,0.282498 0.04823,0.129535 0.14745,0.209461 0.09922,0.07993 0.253559,0.07993 0.155718,0 0.256315,-0.07855 0.101975,-0.07993 0.136425,-0.205327 l 0.237023,0.06752 q -0.06201,0.205327 -0.232888,0.32246 -0.170877,0.115755 -0.396875,0.115755 z m 1.612303,0 q -0.209461,0 -0.367936,-0.09922 -0.157096,-0.09922 -0.24529,-0.278364 -0.08819,-0.179145 -0.08819,-0.416167 0,-0.241157 0.08819,-0.420301 0.08819,-0.180523 0.24529,-0.279742 0.158475,-0.09922 0.367936,-0.09922 0.21084,0 0.369314,0.09922 0.158475,0.09922 0.246669,0.279742 0.08819,0.179144 0.08819,0.420301 0,0.237022 -0.08819,0.416167 -0.08819,0.179145 -0.246669,0.278364 -0.158474,0.09922 -0.369314,0.09922 z m 0,-0.221864 q 0.155719,0 0.256315,-0.07993 0.100597,-0.07993 0.148828,-0.209461 0.04823,-0.130914 0.04823,-0.282498 0,-0.152962 -0.04823,-0.283876 -0.04823,-0.132291 -0.148828,-0.212217 -0.100596,-0.08131 -0.256315,-0.08131 -0.15434,0 -0.253558,0.08131 -0.09922,0.07993 -0.14745,0.210839 -0.04823,0.130914 -0.04823,0.285254 0,0.151584 0.04823,0.282498 0.04823,0.129535 0.14745,0.209461 0.09922,0.07993 0.253558,0.07993 z m 1.587499,0.208084 q -0.232888,0 -0.377582,-0.144694 -0.144694,-0.144694 -0.144694,-0.436838 v -0.978406 h 0.248047 v 0.957736 q 0,0.177767 0.09371,0.278363 0.09371,0.100597 0.254937,0.100597 0.165365,0 0.275608,-0.107487 0.111621,-0.108865 0.111621,-0.305924 v -0.923285 h 0.249424 v 1.540645 h -0.239778 v -0.288009 q -0.07579,0.16812 -0.198437,0.2384 -0.121268,0.0689 -0.272852,0.0689 z m 1.670181,0.01378 q -0.237022,0 -0.394119,-0.103352 -0.157096,-0.103353 -0.198437,-0.303169 l 0.235644,-0.0565 q 0.03307,0.126779 0.124024,0.186035 0.09233,0.05926 0.230132,0.05926 0.16123,0 0.256315,-0.0689 0.09646,-0.0689 0.09646,-0.163987 0,-0.158474 -0.225998,-0.212218 l -0.256315,-0.06063 q -0.413411,-0.09784 -0.413411,-0.420302 0,-0.132291 0.07441,-0.232888 0.07441,-0.101975 0.202572,-0.158474 0.129535,-0.05788 0.293522,-0.05788 0.2384,0 0.369314,0.104731 0.132291,0.103353 0.184657,0.265961 l -0.22462,0.05788 q -0.03169,-0.08268 -0.106109,-0.150206 -0.07304,-0.06752 -0.221864,-0.06752 -0.137804,0 -0.230132,0.06339 -0.09095,0.06339 -0.09095,0.159852 0,0.08544 0.06201,0.137804 0.06201,0.05099 0.197059,0.08268 l 0.232888,0.05512 q 0.209462,0.04961 0.310059,0.15434 0.100596,0.103352 0.100596,0.261827 0,0.135047 -0.07717,0.241156 -0.07579,0.104731 -0.213595,0.165365 -0.136426,0.06063 -0.316949,0.06063 z"
         id="path21" />
      <path
         style="stroke-width:0.365"
         d="m 90.249099,33.966573 q -0.191547,0 -0.338997,-0.09784 -0.14745,-0.09784 -0.230132,-0.276986 -0.08268,-0.179145 -0.08268,-0.424435 0,-0.243913 0.08268,-0.421679 0.08406,-0.179145 0.23151,-0.275608 0.14745,-0.09646 0.338997,-0.09646 0.150206,0 0.238401,0.04961 0.08819,0.04961 0.135047,0.112999 0.04823,0.06201 0.07304,0.103353 h 0.01929 v -0.759299 h 0.248047 v 2.053276 h -0.23978 V 33.6951 h -0.02756 q -0.0248,0.04272 -0.07441,0.107487 -0.04823,0.06339 -0.137803,0.114377 -0.0882,0.04961 -0.235645,0.04961 z m 0.03721,-0.221864 q 0.209462,0 0.321083,-0.16123 0.111621,-0.16123 0.111621,-0.418923 0,-0.254937 -0.110243,-0.412033 -0.108865,-0.157097 -0.322461,-0.157097 -0.146072,0 -0.243912,0.07579 -0.09646,0.07579 -0.144694,0.205328 -0.04823,0.128157 -0.04823,0.28801 0,0.16123 0.04823,0.293522 0.04961,0.130913 0.14745,0.209461 0.09784,0.07717 0.241156,0.07717 z m 1.113454,0.188792 v -1.540646 h 0.248047 v 1.540646 z m 0.125402,-1.792827 q -0.07028,0 -0.121268,-0.04823 -0.05099,-0.04823 -0.05099,-0.115755 0,-0.0689 0.05099,-0.115755 0.05099,-0.04823 0.121268,-0.04823 0.07166,0 0.122645,0.04823 0.05099,0.04685 0.05099,0.115755 0,0.06752 -0.05099,0.115755 -0.05099,0.04823 -0.122645,0.04823 z m 1.081759,1.825899 q -0.237022,0 -0.394119,-0.103352 -0.157096,-0.103353 -0.198437,-0.303169 l 0.235644,-0.0565 q 0.03307,0.126779 0.124024,0.186035 0.09233,0.05926 0.230132,0.05926 0.16123,0 0.256315,-0.0689 0.09646,-0.0689 0.09646,-0.163987 0,-0.158474 -0.225998,-0.212217 l -0.256315,-0.06063 q -0.413411,-0.09784 -0.413411,-0.420301 0,-0.132292 0.07441,-0.232889 0.07441,-0.101974 0.202572,-0.158474 0.129535,-0.05788 0.293522,-0.05788 0.2384,0 0.369314,0.104731 0.132291,0.103353 0.184657,0.265961 l -0.224621,0.05788 q -0.03169,-0.08268 -0.106108,-0.150206 -0.07304,-0.06752 -0.221864,-0.06752 -0.137804,0 -0.230133,0.06339 -0.09095,0.06339 -0.09095,0.159852 0,0.08544 0.06201,0.137804 0.06201,0.05099 0.197059,0.08268 l 0.232888,0.05512 q 0.209462,0.04961 0.310059,0.15434 0.100596,0.103353 0.100596,0.261827 0,0.135047 -0.07717,0.241156 -0.07579,0.104731 -0.213596,0.165365 -0.136425,0.06063 -0.316948,0.06063 z m 1.489658,0 q -0.237022,0 -0.394119,-0.103352 -0.157096,-0.103353 -0.198437,-0.303169 l 0.235644,-0.0565 q 0.03307,0.126779 0.124024,0.186035 0.09233,0.05926 0.230132,0.05926 0.16123,0 0.256315,-0.0689 0.09646,-0.0689 0.09646,-0.163987 0,-0.158474 -0.225998,-0.212217 l -0.256315,-0.06063 q -0.413411,-0.09784 -0.413411,-0.420301 0,-0.132292 0.07441,-0.232889 0.07441,-0.101974 0.202572,-0.158474 0.129535,-0.05788 0.293522,-0.05788 0.2384,0 0.369314,0.104731 0.132291,0.103353 0.184657,0.265961 l -0.22462,0.05788 q -0.03169,-0.08268 -0.106109,-0.150206 -0.07304,-0.06752 -0.221864,-0.06752 -0.137804,0 -0.230132,0.06339 -0.09095,0.06339 -0.09095,0.159852 0,0.08544 0.06201,0.137804 0.06201,0.05099 0.197059,0.08268 l 0.232888,0.05512 q 0.209462,0.04961 0.310059,0.15434 0.100596,0.103353 0.100596,0.261827 0,0.135047 -0.07717,0.241156 -0.07579,0.104731 -0.213595,0.165365 -0.136426,0.06063 -0.316949,0.06063 z m 0.966004,-0.03307 v -1.540646 h 0.248046 v 1.540646 z m 0.125401,-1.792827 q -0.07028,0 -0.121267,-0.04823 -0.05099,-0.04823 -0.05099,-0.115755 0,-0.0689 0.05099,-0.115755 0.05099,-0.04823 0.121267,-0.04823 0.07166,0 0.122645,0.04823 0.05099,0.04685 0.05099,0.115755 0,0.06752 -0.05099,0.115755 -0.05099,0.04823 -0.122645,0.04823 z m 0.558105,2.368846 v -2.116665 h 0.239779 v 0.246669 h 0.02756 q 0.02618,-0.04134 0.07304,-0.103353 0.04685,-0.06339 0.135048,-0.112999 0.08819,-0.04961 0.238401,-0.04961 0.192925,0 0.338997,0.09646 0.14745,0.09646 0.230132,0.275608 0.08406,0.177766 0.08406,0.421679 0,0.24529 -0.08268,0.424435 -0.08268,0.179145 -0.230132,0.276986 -0.146072,0.09784 -0.338997,0.09784 -0.146072,0 -0.235645,-0.04961 -0.08957,-0.05099 -0.137804,-0.114377 -0.04823,-0.06477 -0.07441,-0.107487 h -0.01929 v 0.81442 z m 0.677995,-0.764811 q 0.144693,0 0.241156,-0.07717 0.09784,-0.07855 0.146072,-0.209461 0.04961,-0.132292 0.04961,-0.293522 0,-0.159853 -0.04823,-0.28801 -0.04823,-0.129535 -0.146072,-0.205328 -0.09646,-0.07579 -0.242534,-0.07579 -0.212218,0 -0.322461,0.157097 -0.110243,0.157096 -0.110243,0.412033 0,0.257693 0.111621,0.418923 0.111621,0.16123 0.321083,0.16123 z m 1.50895,0.22462 q -0.146072,0 -0.265961,-0.05512 -0.118511,-0.05512 -0.188791,-0.16123 -0.07028,-0.106109 -0.07028,-0.257693 0,-0.132292 0.05237,-0.214974 0.05236,-0.08268 0.139181,-0.129536 0.08819,-0.04823 0.194304,-0.07166 0.106109,-0.02343 0.213595,-0.03721 0.137804,-0.01791 0.22462,-0.02756 0.08682,-0.0096 0.128158,-0.03307 0.04272,-0.02343 0.04272,-0.07993 v -0.0083 q 0,-0.143315 -0.0813,-0.221864 -0.0813,-0.07993 -0.241157,-0.07993 -0.166742,0 -0.260449,0.07304 -0.09371,0.07166 -0.129535,0.152962 l -0.238401,-0.07855 q 0.05926,-0.140559 0.159853,-0.219108 0.100596,-0.07993 0.221864,-0.112999 0.121267,-0.03307 0.239778,-0.03307 0.07717,0 0.175011,0.01929 0.09922,0.01791 0.190169,0.07304 0.09233,0.05512 0.151584,0.163986 0.06063,0.107487 0.06063,0.28801 v 1.015614 h -0.243913 v -0.209462 h -0.01654 q -0.02618,0.05374 -0.08406,0.111621 -0.05788,0.0565 -0.150207,0.09508 -0.09233,0.03859 -0.223242,0.03859 z m 0.04272,-0.219107 q 0.137803,0 0.232888,-0.05374 0.09508,-0.05374 0.144694,-0.139182 0.04961,-0.08682 0.04961,-0.180522 v -0.213596 q -0.01516,0.01791 -0.06615,0.03307 -0.05099,0.01378 -0.117133,0.0248 -0.06477,0.01103 -0.126779,0.01929 -0.06063,0.0069 -0.09646,0.01102 -0.08957,0.01102 -0.16812,0.03858 -0.07717,0.02618 -0.124024,0.07855 -0.04685,0.05099 -0.04685,0.139182 0,0.119889 0.08957,0.181901 0.09095,0.06063 0.228755,0.06063 z m 1.717033,-1.357367 v 0.212218 h -0.316948 v 0.928797 q 0,0.103353 0.04134,0.151584 0.04272,0.04685 0.14056,0.04685 0.02343,0 0.05926,-0.0055 0.03721,-0.0055 0.06752,-0.01102 l 0.05099,0.209461 q -0.03858,0.01378 -0.08819,0.02067 -0.04823,0.0069 -0.09646,0.0069 -0.199815,0 -0.311436,-0.104731 -0.111621,-0.106109 -0.111621,-0.2949 v -0.948089 h -0.23151 v -0.212218 h 0.23151 v -0.366558 h 0.248047 v 0.366558 z m 0.31695,1.540646 v -1.540646 h 0.24804 v 1.540646 z m 0.1254,-1.792827 q -0.0703,0 -0.12127,-0.04823 -0.05099,-0.04823 -0.05099,-0.115755 0,-0.0689 0.05099,-0.115755 0.051,-0.04823 0.12127,-0.04823 0.0717,0 0.12264,0.04823 0.051,0.04685 0.051,0.115755 0,0.06752 -0.051,0.115755 -0.051,0.04823 -0.12264,0.04823 z m 1.18511,1.825899 q -0.20946,0 -0.36794,-0.09922 -0.15709,-0.09922 -0.24529,-0.278364 -0.0882,-0.179145 -0.0882,-0.416167 0,-0.241156 0.0882,-0.420301 0.0882,-0.180523 0.24529,-0.279742 0.15848,-0.09922 0.36794,-0.09922 0.21084,0 0.36931,0.09922 0.15848,0.09922 0.24667,0.279742 0.0882,0.179145 0.0882,0.420301 0,0.237022 -0.0882,0.416167 -0.0882,0.179145 -0.24667,0.278364 -0.15847,0.09922 -0.36931,0.09922 z m 0,-0.221864 q 0.15572,0 0.25631,-0.07993 0.1006,-0.07993 0.14883,-0.209461 0.0482,-0.130914 0.0482,-0.282498 0,-0.152962 -0.0482,-0.283876 -0.0482,-0.132291 -0.14883,-0.212217 -0.10059,-0.0813 -0.25631,-0.0813 -0.15434,0 -0.25356,0.0813 -0.0992,0.07993 -0.14745,0.210839 -0.0482,0.130914 -0.0482,0.285254 0,0.151584 0.0482,0.282498 0.0482,0.129535 0.14745,0.209461 0.0992,0.07993 0.25356,0.07993 z m 1.31327,-0.734493 v 0.923285 h -0.24805 v -1.540646 h 0.2384 l 0.001,0.285254 q 0.0744,-0.163987 0.1943,-0.234267 0.12127,-0.07028 0.27699,-0.07028 0.23427,0 0.37758,0.144694 0.14332,0.144694 0.14332,0.436838 v 0.978407 h -0.24805 v -0.957736 q 0,-0.177767 -0.0937,-0.278364 -0.0923,-0.100597 -0.25355,-0.100597 -0.16675,0 -0.27837,0.108865 -0.11024,0.107487 -0.11024,0.304547 z"
         id="path22" />
    </g>
    <g
       id="text4-5-2-4"
       style="font-size:2.82222px;line-height:1;font-family:Inter;-inkscape-font-specification:'Inter, Normal';fill:#ffffff;stroke-width:0.365001;stroke-linecap:round;stroke-linejoin:round"
       aria-label="energy &#10;injection">
      <path
         style="stroke-width:0.365"
         d="m 32.263732,22.33073 q -0.223242,0 -0.38585,-0.09922 -0.16123,-0.09922 -0.249425,-0.276985 -0.08682,-0.177767 -0.08682,-0.414789 0,-0.237023 0.08544,-0.417546 0.08544,-0.180523 0.241157,-0.282497 0.157096,-0.101975 0.366558,-0.101975 0.122645,0 0.241156,0.04134 0.119889,0.03996 0.216352,0.130914 0.09784,0.08957 0.155718,0.237022 0.05788,0.14745 0.05788,0.361046 v 0.103353 h -1.113454 q 0.0096,0.241156 0.137803,0.370692 0.129536,0.128157 0.334863,0.128157 0.136426,0 0.234267,-0.05926 0.09922,-0.06063 0.141937,-0.177766 l 0.239779,0.06615 q -0.05374,0.175011 -0.21773,0.283876 -0.162608,0.107487 -0.399631,0.107488 z m -0.46991,-0.928797 h 0.859895 q -0.01792,-0.197059 -0.124024,-0.319705 -0.10473,-0.124023 -0.294899,-0.124023 -0.132292,0 -0.228755,0.06201 -0.09508,0.06201 -0.150206,0.162608 -0.05512,0.100597 -0.06201,0.219108 z m 1.715656,-0.02756 v 0.923285 h -0.248047 v -1.540646 h 0.238401 l 0.0014,0.285254 q 0.07441,-0.163986 0.194303,-0.234266 0.121267,-0.07028 0.276985,-0.07028 0.234267,0 0.377583,0.144694 0.143315,0.144694 0.143315,0.436838 v 0.978406 H 34.24535 v -0.957736 q 0,-0.177767 -0.09371,-0.278363 -0.09233,-0.100597 -0.253559,-0.100597 -0.166742,0 -0.278363,0.108865 -0.110243,0.107487 -0.110243,0.304546 z m 2.067056,0.956358 q -0.223242,0 -0.385851,-0.09922 -0.16123,-0.09922 -0.249424,-0.276985 -0.08682,-0.177767 -0.08682,-0.414789 0,-0.237023 0.08544,-0.417546 0.08544,-0.180523 0.241157,-0.282497 0.157096,-0.101975 0.366558,-0.101975 0.122645,0 0.241156,0.04134 0.11989,0.03996 0.216352,0.130914 0.09784,0.08957 0.155718,0.237022 0.05788,0.14745 0.05788,0.361046 v 0.103353 h -1.113454 q 0.0096,0.241156 0.137804,0.370692 0.129535,0.128157 0.334863,0.128157 0.136425,0 0.234266,-0.05926 0.09922,-0.06063 0.141938,-0.177766 l 0.239778,0.06615 q -0.05374,0.175011 -0.21773,0.283876 -0.162608,0.107487 -0.39963,0.107487 z m -0.469911,-0.928797 h 0.859895 q -0.01791,-0.197059 -0.124023,-0.319705 -0.104731,-0.124023 -0.2949,-0.124023 -0.132292,0 -0.228754,0.06201 -0.09508,0.06201 -0.150206,0.162608 -0.05512,0.100597 -0.06201,0.219108 z m 1.467609,0.895724 v -1.540646 h 0.239779 v 0.237023 h 0.01654 q 0.04272,-0.117133 0.151584,-0.187413 0.110243,-0.07166 0.248047,-0.07166 0.02756,0 0.06477,0.0014 0.03858,0.0014 0.06063,0.0028 v 0.249425 q -0.01102,-0.0028 -0.05512,-0.0083 -0.0441,-0.0055 -0.09371,-0.0055 -0.166742,0 -0.275607,0.101975 -0.108865,0.100597 -0.108865,0.256315 v 0.964626 z m 1.639865,0.609092 q -0.256315,0 -0.409277,-0.09371 -0.152962,-0.09371 -0.22462,-0.220486 l 0.201193,-0.129536 q 0.03307,0.0441 0.0813,0.09784 0.04961,0.05374 0.132292,0.09095 0.08406,0.03858 0.219108,0.03858 0.184657,0 0.303168,-0.08819 0.119889,-0.08819 0.119889,-0.278363 v -0.308681 h -0.02343 q -0.02618,0.0441 -0.07441,0.104731 -0.04685,0.06063 -0.136426,0.107487 -0.08819,0.04547 -0.237023,0.04547 -0.184656,0 -0.332106,-0.08682 -0.14745,-0.08819 -0.232889,-0.256315 -0.08544,-0.16812 -0.08544,-0.409277 0,-0.2384 0.08406,-0.413411 0.08406,-0.176389 0.23151,-0.272851 0.148828,-0.09646 0.340376,-0.09646 0.148828,0 0.237022,0.04961 0.08957,0.04823 0.137804,0.111621 0.04823,0.06339 0.07441,0.104731 h 0.02343 v -0.246669 h 0.241157 v 1.580609 q 0,0.198437 -0.08957,0.323839 -0.08957,0.126779 -0.242534,0.186035 -0.151584,0.05926 -0.338997,0.05926 z m -0.0069,-0.854383 q 0.209461,0 0.321082,-0.141937 0.111621,-0.143316 0.111621,-0.395497 0,-0.245291 -0.110243,-0.399631 -0.108865,-0.155718 -0.32246,-0.155718 -0.146072,0 -0.243913,0.07579 -0.09784,0.07441 -0.14745,0.199815 -0.04823,0.125402 -0.04823,0.279742 0,0.237022 0.111621,0.387228 0.111621,0.150206 0.327973,0.150206 z m 1.088649,0.803396 0.06339,-0.214974 0.02618,0.0069 q 0.114377,0.03032 0.197059,-0.0096 0.08268,-0.03858 0.139182,-0.203949 l 0.0441,-0.128158 -0.588421,-1.548914 h 0.271473 l 0.327973,0.913639 q 0.03583,0.100597 0.06339,0.199815 0.02894,0.09922 0.05512,0.195682 0.02618,-0.09646 0.05374,-0.195682 0.02894,-0.09922 0.06477,-0.199815 l 0.330729,-0.913639 h 0.270095 l -0.676616,1.770778 q -0.07028,0.183279 -0.183279,0.270095 -0.112999,0.08682 -0.276985,0.08682 -0.06615,0 -0.114377,-0.0096 -0.04823,-0.0096 -0.06752,-0.01929 z"
         id="path19" />
      <path
         style="stroke-width:0.365"
         d="m 31.616055,25.119877 v -1.540645 h 0.248047 v 1.540645 z m 0.125401,-1.792826 q -0.07028,0 -0.121267,-0.04823 -0.05099,-0.04823 -0.05099,-0.115755 0,-0.0689 0.05099,-0.115755 0.05099,-0.04823 0.121267,-0.04823 0.07166,0 0.122646,0.04823 0.05099,0.04685 0.05099,0.115755 0,0.06752 -0.05099,0.115755 -0.05099,0.04823 -0.122646,0.04823 z m 0.806152,0.869541 v 0.923285 h -0.248047 v -1.540645 h 0.238401 l 0.0014,0.285253 q 0.07441,-0.163986 0.194303,-0.234266 0.121267,-0.07028 0.276985,-0.07028 0.234267,0 0.377583,0.144694 0.143315,0.144694 0.143315,0.436838 v 0.978406 H 33.28348 v -0.957736 q 0,-0.177767 -0.09371,-0.278363 -0.09233,-0.100597 -0.253559,-0.100597 -0.166742,0 -0.278363,0.108865 -0.110243,0.107487 -0.110243,0.304546 z m 1.418,-0.61736 h 0.249425 v 1.650888 q 0.0014,0.220486 -0.112999,0.343131 -0.114377,0.122646 -0.338997,0.122646 h -0.04961 v -0.228755 h 0.04548 q 0.206705,0 0.206705,-0.237022 z m 0.125402,-0.252181 q -0.07028,0 -0.121268,-0.04823 -0.05099,-0.04823 -0.05099,-0.115755 0,-0.0689 0.05099,-0.115755 0.05099,-0.04823 0.121268,-0.04823 0.07166,0 0.122645,0.04823 0.05099,0.04685 0.05099,0.115755 0,0.06752 -0.05099,0.115755 -0.05099,0.04823 -0.122645,0.04823 z m 1.20716,1.825899 q -0.223242,0 -0.38585,-0.09922 -0.161231,-0.09922 -0.249425,-0.276985 -0.08682,-0.177767 -0.08682,-0.414789 0,-0.237023 0.08544,-0.417546 0.08544,-0.180522 0.241156,-0.282497 0.157097,-0.101975 0.366558,-0.101975 0.122645,0 0.241157,0.04134 0.119889,0.03996 0.216352,0.130914 0.09784,0.08957 0.155718,0.237022 0.05788,0.14745 0.05788,0.361046 v 0.103353 h -1.113454 q 0.0096,0.241156 0.137804,0.370692 0.129535,0.128157 0.334863,0.128157 0.136426,0 0.234266,-0.05926 0.09922,-0.06063 0.141938,-0.177766 l 0.239779,0.06614 q -0.05374,0.175011 -0.21773,0.283876 -0.162609,0.107487 -0.399631,0.107487 z m -0.469911,-0.928797 h 0.859895 q -0.01791,-0.197059 -0.124023,-0.319705 -0.104731,-0.124023 -0.2949,-0.124023 -0.132291,0 -0.228754,0.06201 -0.09509,0.06201 -0.150206,0.162608 -0.05512,0.100597 -0.06201,0.219108 z m 2.094617,0.928797 q -0.209462,0 -0.367936,-0.09922 -0.157096,-0.09922 -0.24529,-0.278363 -0.08819,-0.179145 -0.08819,-0.416167 0,-0.241157 0.08819,-0.420302 0.08819,-0.180523 0.24529,-0.279741 0.158474,-0.09922 0.367936,-0.09922 0.223242,0 0.391363,0.112999 0.169498,0.111621 0.232888,0.312815 l -0.238401,0.06752 q -0.03445,-0.118511 -0.135047,-0.194303 -0.09922,-0.07717 -0.250803,-0.07717 -0.15434,0 -0.253559,0.0813 -0.09922,0.07993 -0.14745,0.21084 -0.04823,0.130913 -0.04823,0.285254 0,0.151584 0.04823,0.282497 0.04823,0.129536 0.14745,0.209462 0.09922,0.07993 0.253559,0.07993 0.155718,0 0.256315,-0.07855 0.101975,-0.07993 0.136426,-0.205328 l 0.237022,0.06752 q -0.06201,0.205328 -0.232888,0.322461 -0.170877,0.115755 -0.396875,0.115755 z m 1.591633,-1.573718 v 0.212217 H 38.19756 v 0.928797 q 0,0.103353 0.04134,0.151584 0.04272,0.04685 0.14056,0.04685 0.02343,0 0.05926,-0.0055 0.03721,-0.0055 0.06752,-0.01103 l 0.05099,0.209462 q -0.03859,0.01378 -0.08819,0.02067 -0.04823,0.0069 -0.09646,0.0069 -0.199815,0 -0.311436,-0.104731 -0.111621,-0.106109 -0.111621,-0.2949 v -0.94809 h -0.231511 v -0.212217 h 0.231511 v -0.366558 h 0.248046 v 0.366558 z m 0.316948,1.540645 v -1.540645 h 0.248047 v 1.540645 z m 0.125402,-1.792826 q -0.07028,0 -0.121267,-0.04823 -0.05099,-0.04823 -0.05099,-0.115755 0,-0.0689 0.05099,-0.115755 0.05099,-0.04823 0.121267,-0.04823 0.07166,0 0.122645,0.04823 0.05099,0.04685 0.05099,0.115755 0,0.06752 -0.05099,0.115755 -0.05099,0.04823 -0.122645,0.04823 z m 1.185112,1.825899 q -0.209462,0 -0.367936,-0.09922 -0.157096,-0.09922 -0.245291,-0.278363 -0.08819,-0.179145 -0.08819,-0.416167 0,-0.241157 0.08819,-0.420302 0.08819,-0.180523 0.245291,-0.279741 0.158474,-0.09922 0.367936,-0.09922 0.21084,0 0.369314,0.09922 0.158474,0.09922 0.246668,0.279741 0.08819,0.179145 0.08819,0.420302 0,0.237022 -0.08819,0.416167 -0.08819,0.179145 -0.246668,0.278363 -0.158474,0.09922 -0.369314,0.09922 z m 0,-0.221864 q 0.155718,0 0.256315,-0.07993 0.100596,-0.07993 0.148828,-0.209462 0.04823,-0.130913 0.04823,-0.282497 0,-0.152963 -0.04823,-0.283876 -0.04823,-0.132292 -0.148828,-0.212218 -0.100597,-0.0813 -0.256315,-0.0813 -0.15434,0 -0.253559,0.0813 -0.09922,0.07993 -0.14745,0.21084 -0.04823,0.130913 -0.04823,0.285254 0,0.151584 0.04823,0.282497 0.04823,0.129536 0.14745,0.209462 0.09922,0.07993 0.253559,0.07993 z m 1.313269,-0.734494 v 0.923285 h -0.248046 v -1.540645 h 0.2384 l 0.0014,0.285253 q 0.07441,-0.163986 0.194303,-0.234266 0.121268,-0.07028 0.276986,-0.07028 0.234266,0 0.377582,0.144694 0.143316,0.144694 0.143316,0.436838 v 0.978406 h -0.248047 v -0.957736 q 0,-0.177767 -0.09371,-0.278363 -0.09233,-0.100597 -0.253559,-0.100597 -0.166743,0 -0.278364,0.108865 -0.110243,0.107487 -0.110243,0.304546 z"
         id="path20" />
    </g>
    <text
       xml:space="preserve"
       style="font-size:4.23333px;line-height:2.3;font-family:Inter;-inkscape-font-specification:'Inter, Normal';fill:#ffffff;fill-opacity:1;stroke:none;stroke-width:0.365001;stroke-linecap:round;stroke-linejoin:round;stroke-dasharray:none;stroke-opacity:1"
       x="92.662941"
       y="29.049862"
       id="text4-5-9"><tspan
         sodipodi:role="line"
         id="tspan4-7-0"
         style="font-size:4.23333px;fill:#ffffff;fill-opacity:1;stroke:none;stroke-width:0.365;stroke-linejoin:round;stroke-opacity:1"
         x="92.662941"
         y="29.049862" /></text>
  </g>
</svg>
