<?xml version="1.0" encoding="UTF-8" standalone="no"?>
<!-- Created with Inkscape (http://www.inkscape.org/) -->

<svg
   width="99.793144mm"
   height="71.199997mm"
   viewBox="0 0 99.793144 71.199997"
   version="1.1"
   id="svg588"
   xmlns:xlink="http://www.w3.org/1999/xlink"
   xmlns="http://www.w3.org/2000/svg"
   xmlns:svg="http://www.w3.org/2000/svg">
  <defs
     id="defs585">
    <linearGradient
       id="linearGradient3122">
      <stop
         style="stop-color:#eaf4ff;stop-opacity:1;"
         offset="0"
         id="stop3114" />
      <stop
         style="stop-color:#ffffff;stop-opacity:1;"
         offset="0.5"
         id="stop3116" />
      <stop
         style="stop-color:#eaf4ff;stop-opacity:1;"
         offset="0.4999997"
         id="stop3118" />
      <stop
         style="stop-color:#eaf4ff;stop-opacity:1;"
         offset="1"
         id="stop3120" />
    </linearGradient>
    <color-profile
       name="Agfa-:-Swop-Standard"
       xlink:href="../../../../../windows/system32/spool/drivers/color/RSWOP.icm"
       id="color-profile1" />
    <color-profile
       name="sRGB-IEC61966-2.1"
       xlink:href="../../../../../windows/system32/spool/drivers/color/sRGB%20Color%20Space%20Profile.icm"
       id="color-profile2" />
    <linearGradient
       id="linearGradient25057">
      <stop
         style="stop-color:#2a2e37;stop-opacity:1;"
         offset="0.60000002"
         id="stop25055" />
      <stop
         style="stop-color:#e3e4e5;stop-opacity:1;"
         offset="1"
         id="stop25053" />
    </linearGradient>
    <linearGradient
       id="linearGradient16733">
      <stop
         style="stop-color:#f1c728;stop-opacity:1;"
         offset="0"
         id="stop16729" />
      <stop
         style="stop-color:#f1f1f1;stop-opacity:1;"
         offset="1"
         id="stop16731" />
    </linearGradient>
    <linearGradient
       xlink:href="#linearGradient3122"
       id="linearGradient1618"
       gradientUnits="userSpaceOnUse"
       gradientTransform="translate(302.67143,228.52006)"
       x1="39.6875"
       y1="60.854168"
       x2="-6.6811271"
       y2="48.429733" />
    <linearGradient
       xlink:href="#linearGradient25057"
       id="linearGradient1620"
       gradientUnits="userSpaceOnUse"
       gradientTransform="translate(203.1947,99.374221)"
       x1="124.70165"
       y1="98.010414"
       x2="84.870499"
       y2="167" />
    <linearGradient
       xlink:href="#linearGradient16733"
       id="linearGradient1622"
       gradientUnits="userSpaceOnUse"
       gradientTransform="translate(220.51522,4.374219)"
       x1="99.21875"
       y1="228.86458"
       x2="72.760414"
       y2="220.92708" />
    <linearGradient
       xlink:href="#linearGradient16733"
       id="linearGradient1624"
       gradientUnits="userSpaceOnUse"
       gradientTransform="translate(220.51522,4.374223)"
       x1="70.114594"
       y1="244.73958"
       x2="50.229473"
       y2="239.41138" />
  </defs>
  <g
     id="layer1"
     style="display:inline"
     transform="translate(-255.05602,-209.27423)">
    <path
       id="rect238-3-4-1-2"
       style="display:inline;fill:url(#linearGradient1618);stroke:#16539f;stroke-width:0.2;stroke-linecap:round;stroke-linejoin:round;stroke-dasharray:none;stroke-opacity:0.917647"
       d="m 301.92161,268.37423 52.82755,-30.5 v 12 l -52.82755,30.5 z" />
    <path
       style="display:inline;fill:none;stroke:#000000;stroke-width:0.2;stroke-linecap:round;stroke-linejoin:round;stroke-dasharray:none;stroke-opacity:1"
       d="m 268.1466,253.87423 h 6.92821"
       id="path12995-9" />
    <path
       style="display:inline;fill:#8f8888;fill-opacity:1;stroke:#000000;stroke-width:0.2;stroke-linecap:round;stroke-linejoin:round;stroke-dasharray:none;stroke-opacity:1"
       d="m 301.9216,262.37423 -8.66026,-2 h -6.9282 l -18.18654,-12.5 -3.4641,-4 v 0 l -9.52628,0.5 60.62179,-35 38.97115,22.5 z"
       id="path6548-6-2" />
    <path
       style="display:inline;fill:url(#linearGradient1620);fill-opacity:1;stroke:#000000;stroke-width:0.2;stroke-linecap:round;stroke-linejoin:round;stroke-dasharray:none;stroke-opacity:1"
       d="m 268.1466,249.87423 -3.4641,-4 c 0,0 -0.86601,3.50001 2.59809,7.5 l 6.92819,5 5.38057,1.84989 1.23746,2.97103 2.04223,1.17908 3.4641,2 c 3.4641,0 3.92071,-1 3.4641,-4 l -3.4641,-2 17.3205,-10 -3.46409,-2 v -2 l 6.92821,-4 5.19615,3 21.65063,-12.5 -18.18653,-10.5 -21.65064,12.5 3.4641,2 v 2 l -6.92821,4 -5.19615,-3 z"
       id="path11497-4-5" />
    <path
       style="display:inline;fill:#a3bdde;fill-opacity:1;stroke:#9ba8b7;stroke-width:0.2;stroke-linecap:round;stroke-linejoin:round;stroke-dasharray:none;stroke-opacity:0.902235"
       d="m 268.1466,252.87423 6.92821,-4"
       id="path17593-13" />
    <path
       id="path1701-2"
       style="display:inline;fill:#eaf4ff;fill-opacity:1;stroke:#16539f;stroke-width:0.2;stroke-linecap:round;stroke-linejoin:round;stroke-dasharray:none;stroke-opacity:0.917647"
       d="m 264.68243,249.87447 -9.52603,0.49971 -1.7e-4,12.00005 9.52604,-0.50023 3.46439,3.00033 6.06216,0.49971 -3e-5,5.00019 6.06216,1.50017 2.5981,4.49983 3.4641,2 h 6.9282 l 8.66026,2 -1.1e-4,-12.00012 -8.65994,-1.99988 h -6.92826 l -3.46438,-1.99987 -2.59778,-4.49999 -6.06216,-1.50016 v -5.00022 l -6.06216,-0.49971 z" />
    <path
       style="display:inline;fill:#a3bdde;fill-opacity:1;stroke:#9ba8b7;stroke-width:0.2;stroke-linecap:round;stroke-linejoin:round;stroke-dasharray:none;stroke-opacity:0.902235"
       d="m 282.86903,264.37423 3.46411,-2"
       id="path17593-1-2" />
    <path
       style="display:inline;fill:#eaf4ff;fill-opacity:1;stroke:#000000;stroke-width:0.2;stroke-linecap:round;stroke-linejoin:round;stroke-dasharray:none;stroke-opacity:0.917647"
       d="m 282.86905,264.37423 3.4641,-2 h 3.4641 l 0.9239,3.99995 -4.388,5e-5 z"
       id="path10754-0" />
    <path
       style="display:inline;fill:#8f8888;fill-opacity:1;stroke:#000000;stroke-width:0.2;stroke-linecap:round;stroke-linejoin:round;stroke-dasharray:none;stroke-opacity:1"
       d="m 275.07481,247.87423 -0.86603,4.5 6.06218,1.5 2.59807,4.5 16.4545,-9.5 -5.19616,-3 12.12433,-7 5.19616,3 17.32053,-10 -12.99039,-7.5 -17.32052,10 5.19615,3 -12.12433,7 -5.19615,-3 z"
       id="path6544-3-0" />
    <path
       style="display:inline;fill:#626161;fill-opacity:1;stroke:#000000;stroke-width:0.2;stroke-linecap:round;stroke-linejoin:round;stroke-dasharray:none;stroke-opacity:1"
       d="m 268.1466,249.87423 17.32051,-10 v -2 l -17.32051,10 z"
       id="path6554-7-2" />
    <path
       style="display:inline;fill:#aaa5a5;fill-opacity:1;stroke:#000000;stroke-width:0.2;stroke-linecap:round;stroke-linejoin:round;stroke-dasharray:none;stroke-opacity:1"
       d="m 285.46711,239.87423 5.19615,3 v -2 l -5.19615,-3 z"
       id="path6556-5-2" />
    <path
       style="display:inline;fill:#626161;fill-opacity:1;stroke:#000000;stroke-width:0.2;stroke-linecap:round;stroke-linejoin:round;stroke-dasharray:none;stroke-opacity:1"
       d="m 290.66326,242.87423 6.92821,-4 v -2 l -6.92821,4 z"
       id="path6558-6-7" />
    <path
       style="display:inline;fill:none;stroke:#16539f;stroke-width:0.2;stroke-linecap:round;stroke-linejoin:round;stroke-dasharray:none;stroke-opacity:0.449704"
       d="m 268.14661,252.87423 10e-6,12"
       id="path10458-9-4" />
    <path
       style="display:inline;fill:#cdced0;fill-opacity:1;stroke:#000000;stroke-width:0.2;stroke-linecap:round;stroke-linejoin:round;stroke-dasharray:none;stroke-opacity:1"
       d="m 286.33294,266.37427 3.90161,-2.26674 0.0806,2.267 z"
       id="path52923-6" />
    <path
       id="path6630-9-64-4"
       style="display:inline;fill:#ecedee;fill-opacity:1;stroke:#000000;stroke-width:0.2;stroke-linecap:round;stroke-linejoin:round;stroke-dasharray:none;stroke-opacity:0.917647"
       d="m 301.92161,268.37424 v -4.00001 l -8.66025,-2 h -3.46411 c 0,3 -7e-5,4.00004 -3.46431,4.00004 l -3.46387,-1.99988 c -1.73202,-3.00001 -1.41078,-3.87425 -1.41082,-6.8744 l -1.18748,-1.62586 -6.06197,-1.4999 -10e-6,-1 -6.06218,-0.5 c -1.77917,-1.77917 -1.73204,-3.10208 -1.73204,-5 l -1.73205,-2 -9.52628,0.5 4e-5,4.00015 9.52655,-0.50023 3.46403,3.00001 6.06218,0.5 -1.7e-4,5.00025 6.06215,1.49997 2.5983,4.49966 3.46387,1.99988 h 6.92826 l 8.66016,2.00031 3e-4,8e-5 z" />
    <path
       style="display:inline;fill:none;stroke:#000000;stroke-width:0.2;stroke-linecap:round;stroke-linejoin:round;stroke-dasharray:none;stroke-opacity:0.326139"
       d="m 280.27077,255.87413 10e-6,4"
       id="path17321-6-9-6-6-7" />
    <path
       style="display:inline;fill:none;stroke:#000000;stroke-width:0.2;stroke-linecap:round;stroke-linejoin:round;stroke-dasharray:none;stroke-opacity:0.326139"
       d="m 293.26135,262.37423 v 4"
       id="path17321-6-9-6-6-9-8" />
    <path
       style="display:inline;fill:#eaf4ff;fill-opacity:1;stroke:#000000;stroke-width:0.2;stroke-linecap:round;stroke-linejoin:round;stroke-dasharray:none;stroke-opacity:1"
       d="m 275.07482,248.87423 -6.9282,4 6.06217,0.5 z"
       id="path10681-3" />
    <path
       style="display:inline;fill:none;stroke:#16539f;stroke-width:0.2;stroke-linecap:round;stroke-linejoin:round;stroke-dasharray:none;stroke-opacity:0.917647"
       d="m 268.14662,252.87423 6.06217,0.5"
       id="path10752-8" />
    <path
       style="display:inline;fill:none;stroke:#16539f;stroke-width:0.2;stroke-linecap:round;stroke-linejoin:round;stroke-dasharray:none;stroke-opacity:0.168627"
       d="m 255.15623,262.37423 19.05256,-11"
       id="path17609-2" />
    <path
       style="display:inline;fill:none;stroke:#000000;stroke-width:0.2;stroke-linecap:round;stroke-linejoin:round;stroke-dasharray:none;stroke-opacity:0.326139"
       d="m 264.68251,249.87423 v -4"
       id="path17321-6-9-6-6-8-7-0" />
    <path
       style="display:inline;fill:none;stroke:#9db8db;stroke-width:0.2;stroke-linecap:round;stroke-linejoin:round;stroke-dasharray:none;stroke-opacity:0.917647"
       d="m 286.33314,266.37423 -1.8e-4,-1e-4"
       id="path17321-6-9-2" />
    <path
       id="path6560-8-1-0"
       style="display:inline;fill:#aaa5a5;fill-opacity:1;stroke:#000000;stroke-width:0.2;stroke-linecap:round;stroke-linejoin:round;stroke-dasharray:none;stroke-opacity:1"
       d="m 264.68257,243.87435 -9.52655,0.49971 v 2.00039 l 9.52655,-0.50022 3.46388,3.99975 v -1.99988 z" />
    <path
       style="display:inline;fill:#a3bdde;fill-opacity:1;stroke:#16539f;stroke-width:0.2;stroke-linecap:round;stroke-linejoin:round;stroke-dasharray:none;stroke-opacity:0.917647"
       d="m 286.33315,266.37423 -3.4641,-2"
       id="path17593-1-4-9-1" />
    <path
       id="path6550-6-8"
       style="display:inline;fill:#aaa5a5;fill-opacity:1;stroke:#000000;stroke-width:0.2;stroke-linecap:round;stroke-linejoin:round;stroke-dasharray:none;stroke-opacity:1"
       d="m 286.33293,260.37412 v 1.99987 h 6.92826 l 8.66046,2.0004 v -2.0004 l -8.66046,-1.99987 z" />
    <path
       style="display:inline;fill:#626161;fill-opacity:1;stroke:#000000;stroke-width:0.2;stroke-linecap:round;stroke-linejoin:round;stroke-dasharray:none;stroke-opacity:1"
       d="m 282.86904,260.37423 16.45449,-9.5 v -2 l -16.45449,9.5 z"
       id="path6562-4-8" />
    <path
       style="display:inline;fill:none;stroke:#16539f;stroke-width:0.2;stroke-linecap:round;stroke-linejoin:round;stroke-dasharray:none;stroke-opacity:0.449704"
       d="m 282.86905,264.37423 v 12"
       id="path10458-0-6" />
    <path
       style="display:inline;fill:#626161;fill-opacity:1;stroke:#000000;stroke-width:0.2;stroke-linecap:round;stroke-linejoin:round;stroke-dasharray:none;stroke-opacity:1"
       d="m 295.85943,246.87423 10.39228,-6 v -2 l -12.12434,7 z"
       id="path6564-0-3" />
    <path
       style="display:inline;fill:#aaa5a5;fill-opacity:1;stroke:#000000;stroke-width:0.2;stroke-linecap:round;stroke-linejoin:round;stroke-dasharray:none;stroke-opacity:1"
       d="m 306.25171,240.87423 5.19616,3 v -2 l -5.19616,-3 z"
       id="path6566-2-9" />
    <path
       style="display:inline;fill:#aaa5a5;fill-opacity:1;stroke:#000000;stroke-width:0.2;stroke-linecap:round;stroke-linejoin:round;stroke-dasharray:none;stroke-opacity:1"
       d="m 300.18956,246.37423 v 2 l 3.46409,2 1.73205,-1 z"
       id="path6568-2-5" />
    <path
       style="display:inline;fill:#626161;fill-opacity:1;stroke:#000000;stroke-width:0.2;stroke-linecap:round;stroke-linejoin:round;stroke-dasharray:none;stroke-opacity:1"
       d="m 311.44787,243.87423 17.32052,-10 v -2 l -17.32052,10 z"
       id="path6570-1-9" />
    <path
       style="display:inline;fill:#aaa5a5;fill-opacity:1;stroke:#000000;stroke-width:0.2;stroke-linecap:round;stroke-linejoin:round;stroke-dasharray:none;stroke-opacity:1"
       d="m 303.65364,237.37423 -1.73205,1 -3.4641,-2 v -2 z"
       id="path6572-5-8" />
    <path
       style="display:inline;fill:#f2d981;fill-opacity:1;stroke:#000000;stroke-width:0.2;stroke-linecap:round;stroke-linejoin:round;stroke-dasharray:none;stroke-opacity:1"
       d="m 311.44788,238.87423 v 1 l -9.52628,-5.5 v -1 z"
       id="path6572-5-0-2" />
    <path
       style="display:inline;fill:#d6b22a;fill-opacity:1;stroke:#000000;stroke-width:0.2;stroke-linecap:round;stroke-linejoin:round;stroke-dasharray:none;stroke-opacity:1"
       d="m 311.44788,238.87423 v 1 l 13.8564,-8 v -1 z"
       id="path6572-5-0-5-5" />
    <path
       style="display:inline;fill:#626161;fill-opacity:1;stroke:#000000;stroke-width:0.2;stroke-linecap:round;stroke-linejoin:round;stroke-dasharray:none;stroke-opacity:1"
       d="m 294.12737,234.87423 21.65064,-12.5 v -2 l -23.38269,13.5 z"
       id="path6574-3-0" />
    <path
       style="display:inline;fill:#aaa5a5;fill-opacity:1;stroke:#000000;stroke-width:0.2;stroke-linecap:round;stroke-linejoin:round;stroke-dasharray:none;stroke-opacity:1"
       d="m 315.77801,222.37423 18.18653,10.5 1.73205,-1 -19.91858,-11.5 z"
       id="path6576-5-2" />
    <path
       style="display:inline;fill:none;stroke:#171717;stroke-width:0.2;stroke-linecap:round;stroke-linejoin:round;stroke-dasharray:none;stroke-opacity:0.406114"
       d="m 293.26145,262.39858 -1e-5,-2"
       id="path17593-8-7-85-0" />
    <path
       style="display:inline;fill:none;stroke:#171717;stroke-width:0.2;stroke-linecap:round;stroke-linejoin:round;stroke-dasharray:none;stroke-opacity:0.406114"
       d="m 264.68251,245.87423 -10e-6,-2"
       id="path17593-8-7-8-5" />
    <path
       style="display:inline;fill:none;stroke:#16539f;stroke-width:0.2;stroke-linecap:round;stroke-linejoin:round;stroke-dasharray:none;stroke-opacity:0.168639"
       d="m 344.35685,243.87423 10.39231,6"
       id="path17609-3-4" />
    <path
       style="display:inline;fill:url(#linearGradient1622);fill-opacity:1;stroke:#000000;stroke-width:0.2;stroke-linecap:round;stroke-linejoin:round;stroke-dasharray:none;stroke-opacity:1"
       d="m 301.9216,233.37423 9.52628,5.5 13.8564,-8 -9.52627,-5.5 z"
       id="path7672-0" />
    <path
       id="path6630-9-64-2-6-2"
       style="display:inline;fill:#d4d4d4;fill-opacity:1;stroke:#000000;stroke-width:0.2;stroke-linecap:round;stroke-linejoin:round;stroke-dasharray:none;stroke-opacity:0.917647"
       d="m 354.74916,233.74924 -52.82756,30.62499 10e-6,-0.12499 v 0 l -10e-6,4.12499 h 10e-6 l 52.82755,-30.5 z" />
    <path
       style="display:inline;fill:#626161;fill-opacity:1;stroke:#000000;stroke-width:0.2;stroke-linecap:round;stroke-linejoin:round;stroke-dasharray:none;stroke-opacity:1"
       d="m 301.9216,264.37423 v -2 l 52.82756,-30.5 v 2 z"
       id="path6552-5-7" />
    <path
       style="display:inline;fill:#f2d981;fill-opacity:1;stroke:#000000;stroke-width:0.2;stroke-linecap:round;stroke-linejoin:round;stroke-dasharray:none;stroke-opacity:1"
       d="m 274.20879,252.37423 v -1 l 6.06218,1.5 v 1 z"
       id="path10880-1" />
    <path
       style="display:inline;fill:#f2d981;fill-opacity:1;stroke:#000000;stroke-width:0.2;stroke-linecap:round;stroke-linejoin:round;stroke-dasharray:none;stroke-opacity:1"
       d="m 280.27097,253.87423 v -1 l 1.73205,3 v 1 z"
       id="path10882-7" />
    <path
       style="display:inline;fill:#d6b22a;fill-opacity:1;stroke:#a68c20;stroke-width:0.2;stroke-linecap:round;stroke-linejoin:round;stroke-dasharray:none;stroke-opacity:1"
       d="m 280.27097,253.87423 v -1"
       id="path11448-0" />
    <path
       id="path6560-8-9"
       style="display:inline;fill:#aaa5a5;fill-opacity:1;stroke:#000000;stroke-width:0.2;stroke-linecap:round;stroke-linejoin:round;stroke-dasharray:none;stroke-opacity:1"
       d="m 274.20879,252.37423 -1.8e-4,2.00025 6.06216,1.49965 2.59829,4.49999 v -1.99988 l -2.59829,-4.49999 z" />
    <path
       style="display:inline;fill:#d6b22a;fill-opacity:1;stroke:#000000;stroke-width:0.2;stroke-linecap:round;stroke-linejoin:round;stroke-dasharray:none;stroke-opacity:1"
       d="m 282.00302,256.87423 13.8564,-8 v -1 l -13.8564,8 z"
       id="path10884-8" />
    <path
       style="display:inline;fill:none;stroke:#171717;stroke-width:0.2;stroke-linecap:round;stroke-linejoin:round;stroke-dasharray:none;stroke-opacity:0.406114"
       d="m 280.27097,255.87423 -10e-6,-2"
       id="path17593-8-7-1" />
    <path
       style="display:inline;fill:url(#linearGradient1624);fill-opacity:1;stroke:#000000;stroke-width:0.2;stroke-linecap:round;stroke-linejoin:round;stroke-dasharray:none;stroke-opacity:1"
       d="m 280.27097,252.87423 1.73205,3 13.8564,-8 -9.52628,-5.5 -11.65943,6.73158 -0.46492,2.26842 z"
       id="path10886-1" />
    <path
       style="display:inline;fill:none;stroke:#16539f;stroke-width:0.2;stroke-linecap:round;stroke-linejoin:round;stroke-dasharray:none;stroke-opacity:0.917647"
       d="m 274.20879,258.37423 v 12"
       id="path10458-5" />
    <path
       style="display:inline;fill:none;stroke:#16539f;stroke-width:0.2;stroke-linecap:round;stroke-linejoin:round;stroke-dasharray:none;stroke-opacity:0.449704"
       d="m 264.68251,249.87423 v 12"
       id="path10458-3-6" />
    <path
       style="display:inline;fill:none;stroke:#16539f;stroke-width:0.2;stroke-linecap:round;stroke-linejoin:round;stroke-dasharray:none;stroke-opacity:0.449704"
       d="m 280.27097,259.87423 v 12"
       id="path10458-31-3" />
    <path
       style="display:inline;fill:none;stroke:#16539f;stroke-width:0.2;stroke-linecap:round;stroke-linejoin:round;stroke-dasharray:none;stroke-opacity:0.449704"
       d="m 286.33315,266.37423 v 12"
       id="path10458-6-5" />
    <path
       style="display:inline;fill:none;stroke:#16539f;stroke-width:0.2;stroke-linecap:round;stroke-linejoin:round;stroke-dasharray:none;stroke-opacity:0.449704"
       d="m 293.26135,266.37423 v 12"
       id="path10458-2-7" />
  </g>
</svg>
