<?xml version="1.0" encoding="UTF-8" standalone="no"?>
<!-- Generator: $$$/GeneralStr/196=Adobe Illustrator 27.6.0, SVG Export Plug-In . SVG Version: 6.00 Build 0)  -->

<svg
   version="1.1"
   id="Calque_1"
   x="0px"
   y="0px"
   viewBox="0 0 55.3 55.3"
   style="enable-background:new 0 0 55.3 55.3;"
   xml:space="preserve"
   sodipodi:docname="logo_cnrs.svg"
   inkscape:version="1.3.2 (091e20e, 2023-11-25, custom)"
   xmlns:inkscape="http://www.inkscape.org/namespaces/inkscape"
   xmlns:sodipodi="http://sodipodi.sourceforge.net/DTD/sodipodi-0.dtd"
   xmlns="http://www.w3.org/2000/svg"
   xmlns:svg="http://www.w3.org/2000/svg"><defs
   id="defs6">
	
	
</defs><sodipodi:namedview
   id="namedview6"
   pagecolor="#3a3a3a"
   bordercolor="#999999"
   borderopacity="1"
   inkscape:showpageshadow="2"
   inkscape:pageopacity="0"
   inkscape:pagecheckerboard="0"
   inkscape:deskcolor="#d1d1d1"
   inkscape:zoom="11.313709"
   inkscape:cx="19.003495"
   inkscape:cy="28.416854"
   inkscape:window-width="1920"
   inkscape:window-height="1013"
   inkscape:window-x="-9"
   inkscape:window-y="-9"
   inkscape:window-maximized="1"
   inkscape:current-layer="g5" />
<style
   type="text/css"
   id="style1">
	.st0{fill:#00294B;}
	.st1{fill:#FFFFFF;}
</style>
<g
   id="g5"
   style="fill:#070707;fill-opacity:1">
		
		
		
		<path
   id="path1"
   style="enable-background:new 0 0 55.3 55.3;fill:#ffffff;fill-opacity:1"
   class="st0"
   d="M 25 0 C 18.200007 0 11.999604 2.8992246 6.5996094 8.6992188 C 1.5996144 13.899214 -1.1842367e-15 18.200786 0 23.300781 C 0 26.000779 0.49921945 29.000003 1.1992188 32.5 C 2.4992175 39.099993 6.5000055 45.499614 12 50.099609 C 16.199996 53.599606 20.900396 55.300391 25.900391 55.400391 C 28.500388 55.400391 31.100784 54.999999 33.800781 54 C 42.400773 51.000003 50.700394 42.500772 53.900391 33.300781 C 54.90039 30.400784 55.400391 27.500779 55.400391 24.800781 C 55.400391 18.200788 52.399604 12.400777 46.599609 8.3007812 C 39.499616 3.2007864 32.799994 0.39960908 26.5 0.099609375 C 26 -0.000390525 25.5 1.8503699e-17 25 0 z M 45.199219 15.199219 C 46.899215 15.199219 48.299611 15.800783 49.099609 16.800781 C 49.399609 17.100781 49.5 17.5 49 18 L 48.199219 18.800781 L 48.099609 18.699219 C 47.099611 17.699221 46.300779 17.5 45.300781 17.5 C 43.500785 17.5 42.400391 18.499613 42.400391 20.099609 C 42.400391 21.299607 42.900004 21.999219 44.5 22.699219 L 46.099609 23.400391 C 48.499605 24.400389 50.099609 25.700006 50.099609 28.5 C 50.099609 31.899994 47.200385 33.599609 44.400391 33.599609 C 43.100393 33.599609 41.299998 33.299215 40 31.699219 C 39.5 31.199219 39.5 30.800389 40 30.400391 L 40.800781 29.5 L 40.900391 29.599609 C 42.300387 31.199607 43.400393 31.400391 44.400391 31.400391 C 45.600387 31.400391 47.599609 30.799605 47.599609 28.599609 C 47.599609 26.999613 46.799607 26.299609 45.099609 25.599609 L 43.400391 24.900391 C 41.500395 24.000393 39.800781 22.899605 39.800781 20.099609 C 39.800781 17.299615 42.099225 15.199219 45.199219 15.199219 z M 11.599609 15.300781 C 16.799599 15.300781 17.300781 19.799221 17.300781 20.699219 C 17.300781 20.799219 17.199609 20.999609 17.099609 21.099609 C 16.999609 21.199609 16.799609 21.300781 16.599609 21.300781 L 14.699219 21.300781 L 14.699219 21.199219 C 14.699219 20.999219 14.499603 17.599609 11.599609 17.599609 C 8.999615 17.599609 7.6992188 19.90001 7.6992188 24.5 C 7.6992187 29.09999 8.999615 31.400391 11.599609 31.400391 C 14.499603 31.400391 14.699219 28.200781 14.699219 27.800781 L 14.699219 27.699219 L 16.599609 27.699219 C 16.799609 27.699219 16.999609 27.800391 17.099609 27.900391 C 17.199609 28.100389 17.300781 28.200391 17.300781 28.400391 C 17.200781 29.600387 16.599599 33.699219 11.599609 33.699219 C 7.3996182 33.699219 5.1992188 30.499988 5.1992188 24.5 C 5.1992187 18.500012 7.3996182 15.300781 11.599609 15.300781 z M 37.900391 15.300781 C 38.500389 15.300781 39 15.3 39.5 15.5 C 39.7 15.6 39.900391 15.799611 39.900391 16.099609 C 39.900391 16.299609 39.900781 16.4 39.800781 16.5 L 38.800781 17.800781 C 38.400783 17.600781 37.9 17.5 37.5 17.5 C 35.800004 17.5 34.400391 18.899613 34.400391 20.599609 L 34.400391 33.699219 L 32.699219 33.699219 C 32.299219 33.699219 32 33.5 32 33 L 32 16.300781 C 32 15.900783 32.199219 15.599609 32.699219 15.599609 L 34.400391 15.599609 L 34.400391 16.599609 C 35.300389 15.799611 36.600393 15.300781 37.900391 15.300781 z M 24.800781 15.400391 C 27.700775 15.400391 30 17.799615 30 20.599609 C 30 20.599609 30.000391 32.999609 29.900391 33.099609 C 29.900391 33.499609 29.699217 33.800781 29.199219 33.800781 L 27.5 33.800781 L 27.5 20.699219 C 27.5 18.999221 26.100387 17.599609 24.400391 17.599609 C 22.700393 17.599609 21.300781 18.999221 21.300781 20.699219 L 21.300781 33.699219 L 19.599609 33.699219 C 19.199611 33.699219 18.900391 33.5 18.900391 33 L 18.900391 16.400391 C 18.900391 16.000391 19.099611 15.699219 19.599609 15.699219 L 21.300781 15.699219 L 21.300781 16.699219 C 22.200779 15.899221 23.500785 15.400391 24.800781 15.400391 z " />
	</g>
</svg>
